<svg width="115" height="111" viewBox="0 0 115 111" fill="none" xmlns="http://www.w3.org/2000/svg">
<ellipse cx="57.4286" cy="55.4153" rx="56.7374" ry="55.3462" fill="#B08968"/>
<path fill-rule="evenodd" clip-rule="evenodd" d="M44.744 29.0044C39.1208 29.0044 34.338 31.0168 30.9852 34.6865C27.6632 38.3167 26 43.2885 26 48.7909C26 58.3487 30.884 65.9643 37.088 71.8875C43.2656 77.7845 51.036 82.2696 57.4688 85.6236C57.9389 85.8694 58.4615 85.9985 58.9923 86C59.5232 86.0015 60.0465 85.8754 60.518 85.6324C66.9552 82.3135 74.7212 77.7932 80.9032 71.8656C87.1072 65.9248 92 58.2829 92 48.7909C92 43.2666 90.328 38.2992 87.0016 34.6689C83.6444 31.008 78.8616 29 73.256 29C68.5216 29 64.6056 30.7493 61.6268 34.0464C60.6091 35.1892 59.7277 36.4457 59 37.7906C58.2724 36.4457 57.3909 35.1892 56.3732 34.0464C53.3944 30.7493 49.4784 29.0044 44.744 29.0044Z" fill="#EDE0D4"/>
</svg>
