<svg width="62" height="60" viewBox="0 0 62 60" fill="none" xmlns="http://www.w3.org/2000/svg">
<ellipse cx="31.1715" cy="29.5547" rx="30.2155" ry="29.4746" fill="#D8D8D8"/>
<path d="M61.4326 29.5547C61.4326 45.8331 47.9046 59.0293 31.2171 59.0293C14.5295 59.0293 1.00159 45.8331 1.00159 29.5547C1.00159 13.2763 14.5295 0.0800934 31.2171 0.0800934C47.9046 0.0800934 61.4326 13.2763 61.4326 29.5547Z" fill="#B08968"/>
<g clip-path="url(#clip0_105_2)">
<path fill-rule="evenodd" clip-rule="evenodd" d="M37.4275 17.071C37.8775 16.1699 38.5697 15.4119 39.4263 14.882C40.2829 14.3521 41.2703 14.0713 42.2775 14.071H44.11C44.2758 14.071 44.4348 14.1369 44.552 14.2541C44.6692 14.3713 44.735 14.5303 44.735 14.696V20.246L51.505 22.501C51.629 22.5429 51.7366 22.6226 51.8129 22.7289C51.8891 22.8352 51.9301 22.9627 51.93 23.0935V25.4935C51.9294 26.9308 51.3581 28.309 50.3418 29.3253C49.3255 30.3416 47.9473 30.9129 46.51 30.9135H42.335V30.9185C39.775 30.376 37.875 28.9335 36.5 27.2335C35.5623 26.0638 34.8163 24.7524 34.29 23.3485L37.4275 17.071ZM31.0925 23.6685H27.0875C25.05 23.6683 23.0732 22.9744 21.4825 21.701L18.115 19.006C18.023 18.9325 17.912 18.8865 17.7949 18.8734C17.6778 18.8602 17.5594 18.8804 17.4533 18.9316C17.3472 18.9828 17.2577 19.063 17.1952 19.1629C17.1327 19.2627 17.0997 19.3782 17.1 19.496V39.8835C17.0805 40.4503 17.1753 41.0151 17.3787 41.5445C17.5821 42.0738 17.89 42.5568 18.2841 42.9646C18.6781 43.3724 19.1502 43.6967 19.6722 43.9182C20.1942 44.1397 20.7555 44.2539 21.3225 44.2539C21.8896 44.2539 22.4509 44.1397 22.9729 43.9182C23.4949 43.6967 23.967 43.3724 24.361 42.9646C24.755 42.5568 25.0629 42.0738 25.2663 41.5445C25.4698 41.0151 25.5645 40.4503 25.545 39.8835V38.6835C25.5457 38.2132 25.733 37.7624 26.0658 37.43C26.3986 37.0977 26.8497 36.911 27.32 36.911H32.1175C32.3506 36.911 32.5814 36.957 32.7968 37.0462C33.0121 37.1354 33.2078 37.2661 33.3727 37.4309C33.5375 37.5958 33.6682 37.7914 33.7574 38.0068C33.8466 38.2221 33.8925 38.4529 33.8925 38.686V39.886C33.873 40.4528 33.9678 41.0176 34.1712 41.547C34.3746 42.0763 34.6825 42.5592 35.0766 42.9671C35.4706 43.3749 35.9427 43.6992 36.4647 43.9207C36.9867 44.1422 37.548 44.2564 38.115 44.2564C38.6821 44.2564 39.2434 44.1422 39.7654 43.9207C40.2874 43.6992 40.7595 43.3749 41.1535 42.9671C41.5475 42.5592 41.8554 42.0763 42.0588 41.547C42.2623 41.0176 42.357 40.4528 42.3375 39.886V34.0935C38.6125 33.496 35.9125 31.4685 34.07 29.1985C32.7487 27.5516 31.7404 25.6765 31.095 23.666L31.0925 23.6685Z" fill="#EDE0D4"/>
</g>
<defs>
<clipPath id="clip0_105_2">
<rect width="35" height="35" fill="white" transform="translate(17 9.30104)"/>
</clipPath>
</defs>
</svg>
