<svg width="115" height="112" viewBox="0 0 115 112" fill="none" xmlns="http://www.w3.org/2000/svg">
<ellipse cx="57.4286" cy="55.8641" rx="56.7374" ry="55.3462" fill="#D8D8D8"/>
<path d="M114.252 55.8641C114.252 86.431 88.8497 111.21 57.5145 111.21C26.1793 111.21 0.7771 86.431 0.7771 55.8641C0.7771 25.2972 26.1793 0.517868 57.5145 0.517868C88.8497 0.517868 114.252 25.2972 114.252 55.8641Z" fill="#EDE0D4"/>
<ellipse cx="56.7612" cy="34.3768" rx="25.0312" ry="24.4175" fill="#EDE0D4"/>
<path d="M67.5037 47.3143C74.5333 47.3143 78.8593 37 78.8593 30.4857C78.8593 25.0571 76.1556 18.5429 70.7481 18.5429C63.7185 18.5429 59.3926 28.8571 59.3926 35.3714C59.3926 40.8 62.0963 47.3143 67.5037 47.3143ZM46.9556 47.3143C52.363 47.3143 55.0667 40.8 55.0667 35.3714C55.0667 28.3143 50.7407 18 43.7111 18C38.3037 18 35.6 24.5143 35.6 29.9429C35.0593 37 39.3852 47.3143 46.9556 47.3143ZM86.9704 41.8857C79.9407 41.8857 75.0741 51.6571 75.0741 58.7143C75.0741 63.6 77.237 68.4857 82.1037 68.4857C89.1333 68.4857 94 58.7143 94 51.6571C94 46.7714 91.2963 41.8857 86.9704 41.8857ZM39.9259 58.7143C39.9259 51.6571 34.5185 41.8857 28.0296 41.8857C23.163 41.8857 21 46.7714 21 51.6571C21 58.7143 26.4074 68.4857 32.8963 68.4857C37.763 68.4857 39.9259 63.6 39.9259 58.7143ZM57.2296 57.6286C46.4148 57.6286 31.8148 75 31.8148 86.9429C31.8148 92.3714 35.6 94 39.9259 94C46.4148 94 51.2815 89.6571 57.2296 89.6571C62.637 89.6571 67.5037 94 73.4519 94C77.7778 94 82.6444 92.9143 82.6444 86.9429C82.6444 75 68.0444 57.6286 57.2296 57.6286Z" fill="#B08968"/>
</svg>
