<svg width="519" height="519" viewBox="0 0 519 519" fill="none" xmlns="http://www.w3.org/2000/svg">
<circle cx="259.5" cy="259.5" r="259.5" fill="#B08968"/>
<path d="M308.97 187.257C343.733 187.257 365.126 136.5 365.126 104.443C365.126 77.7286 351.756 45.6714 325.015 45.6714C290.252 45.6714 268.859 96.4286 268.859 128.486C268.859 155.2 282.23 187.257 308.97 187.257ZM207.356 187.257C234.096 187.257 247.467 155.2 247.467 128.486C247.467 93.7571 226.074 43 191.311 43C164.57 43 151.2 75.0571 151.2 101.771C148.526 136.5 169.919 187.257 207.356 187.257ZM405.237 160.543C370.474 160.543 346.407 208.629 346.407 243.357C346.407 267.4 357.104 291.443 381.17 291.443C415.933 291.443 440 243.357 440 208.629C440 184.586 426.63 160.543 405.237 160.543ZM172.593 243.357C172.593 208.629 145.852 160.543 113.763 160.543C89.6963 160.543 79 184.586 79 208.629C79 243.357 105.741 291.443 137.83 291.443C161.896 291.443 172.593 267.4 172.593 243.357ZM258.163 238.014C204.681 238.014 132.481 323.5 132.481 382.271C132.481 408.986 151.2 417 172.593 417C204.681 417 228.748 395.629 258.163 395.629C284.904 395.629 308.97 417 338.385 417C359.778 417 383.844 411.657 383.844 382.271C383.844 323.5 311.644 238.014 258.163 238.014Z" fill="#EDE0D4"/>
<path d="M170.15 437.575V448.6C170.15 450.15 170.525 451.3 171.275 452.05C172.042 452.8 173.1 453.175 174.45 453.175C175.783 453.175 176.825 452.8 177.575 452.05C178.342 451.3 178.725 450.15 178.725 448.6V437.575H181V448.575C181 450.025 180.708 451.25 180.125 452.25C179.542 453.233 178.75 453.967 177.75 454.45C176.767 454.933 175.658 455.175 174.425 455.175C173.192 455.175 172.075 454.933 171.075 454.45C170.092 453.967 169.308 453.233 168.725 452.25C168.158 451.25 167.875 450.025 167.875 448.575V437.575H170.15ZM196.445 442.675C196.445 444.125 195.945 445.333 194.945 446.3C193.962 447.25 192.453 447.725 190.42 447.725H187.07V455H184.795V437.575H190.42C192.387 437.575 193.878 438.05 194.895 439C195.928 439.95 196.445 441.175 196.445 442.675ZM190.42 445.85C191.687 445.85 192.62 445.575 193.22 445.025C193.82 444.475 194.12 443.692 194.12 442.675C194.12 440.525 192.887 439.45 190.42 439.45H187.07V445.85H190.42ZM201.548 453.15H207.648V455H199.273V437.575H201.548V453.15ZM217.964 455.175C216.347 455.175 214.872 454.8 213.539 454.05C212.205 453.283 211.147 452.225 210.364 450.875C209.597 449.508 209.214 447.975 209.214 446.275C209.214 444.575 209.597 443.05 210.364 441.7C211.147 440.333 212.205 439.275 213.539 438.525C214.872 437.758 216.347 437.375 217.964 437.375C219.597 437.375 221.08 437.758 222.414 438.525C223.747 439.275 224.797 440.325 225.564 441.675C226.33 443.025 226.714 444.558 226.714 446.275C226.714 447.992 226.33 449.525 225.564 450.875C224.797 452.225 223.747 453.283 222.414 454.05C221.08 454.8 219.597 455.175 217.964 455.175ZM217.964 453.2C219.18 453.2 220.272 452.917 221.239 452.35C222.222 451.783 222.989 450.975 223.539 449.925C224.105 448.875 224.389 447.658 224.389 446.275C224.389 444.875 224.105 443.658 223.539 442.625C222.989 441.575 222.23 440.767 221.264 440.2C220.297 439.633 219.197 439.35 217.964 439.35C216.73 439.35 215.63 439.633 214.664 440.2C213.697 440.767 212.93 441.575 212.364 442.625C211.814 443.658 211.539 444.875 211.539 446.275C211.539 447.658 211.814 448.875 212.364 449.925C212.93 450.975 213.697 451.783 214.664 452.35C215.647 452.917 216.747 453.2 217.964 453.2ZM240.017 451.125H232.417L231.017 455H228.617L234.917 437.675H237.542L243.817 455H241.417L240.017 451.125ZM239.367 449.275L236.217 440.475L233.067 449.275H239.367ZM251.988 437.575C253.888 437.575 255.529 437.933 256.913 438.65C258.313 439.35 259.379 440.358 260.113 441.675C260.863 442.992 261.238 444.542 261.238 446.325C261.238 448.108 260.863 449.658 260.113 450.975C259.379 452.275 258.313 453.275 256.913 453.975C255.529 454.658 253.888 455 251.988 455H246.563V437.575H251.988ZM251.988 453.125C254.238 453.125 255.954 452.533 257.138 451.35C258.321 450.15 258.913 448.475 258.913 446.325C258.913 444.158 258.313 442.467 257.113 441.25C255.929 440.033 254.221 439.425 251.988 439.425H248.838V453.125H251.988ZM282.554 442.675C282.554 444.125 282.054 445.333 281.054 446.3C280.07 447.25 278.562 447.725 276.529 447.725H273.179V455H270.904V437.575H276.529C278.495 437.575 279.987 438.05 281.004 439C282.037 439.95 282.554 441.175 282.554 442.675ZM276.529 445.85C277.795 445.85 278.729 445.575 279.329 445.025C279.929 444.475 280.229 443.692 280.229 442.675C280.229 440.525 278.995 439.45 276.529 439.45H273.179V445.85H276.529ZM298.806 437.575V455H296.531V447.1H287.656V455H285.381V437.575H287.656V445.225H296.531V437.575H298.806ZM310.591 455.175C308.974 455.175 307.499 454.8 306.166 454.05C304.832 453.283 303.774 452.225 302.991 450.875C302.224 449.508 301.841 447.975 301.841 446.275C301.841 444.575 302.224 443.05 302.991 441.7C303.774 440.333 304.832 439.275 306.166 438.525C307.499 437.758 308.974 437.375 310.591 437.375C312.224 437.375 313.707 437.758 315.041 438.525C316.374 439.275 317.424 440.325 318.191 441.675C318.957 443.025 319.341 444.558 319.341 446.275C319.341 447.992 318.957 449.525 318.191 450.875C317.424 452.225 316.374 453.283 315.041 454.05C313.707 454.8 312.224 455.175 310.591 455.175ZM310.591 453.2C311.807 453.2 312.899 452.917 313.866 452.35C314.849 451.783 315.616 450.975 316.166 449.925C316.732 448.875 317.016 447.658 317.016 446.275C317.016 444.875 316.732 443.658 316.166 442.625C315.616 441.575 314.857 440.767 313.891 440.2C312.924 439.633 311.824 439.35 310.591 439.35C309.357 439.35 308.257 439.633 307.291 440.2C306.324 440.767 305.557 441.575 304.991 442.625C304.441 443.658 304.166 444.875 304.166 446.275C304.166 447.658 304.441 448.875 304.991 449.925C305.557 450.975 306.324 451.783 307.291 452.35C308.274 452.917 309.374 453.2 310.591 453.2ZM333.069 437.575V439.425H328.319V455H326.044V439.425H321.269V437.575H333.069ZM343.769 455.175C342.153 455.175 340.678 454.8 339.344 454.05C338.011 453.283 336.953 452.225 336.169 450.875C335.403 449.508 335.019 447.975 335.019 446.275C335.019 444.575 335.403 443.05 336.169 441.7C336.953 440.333 338.011 439.275 339.344 438.525C340.678 437.758 342.153 437.375 343.769 437.375C345.403 437.375 346.886 437.758 348.219 438.525C349.553 439.275 350.603 440.325 351.369 441.675C352.136 443.025 352.519 444.558 352.519 446.275C352.519 447.992 352.136 449.525 351.369 450.875C350.603 452.225 349.553 453.283 348.219 454.05C346.886 454.8 345.403 455.175 343.769 455.175ZM343.769 453.2C344.986 453.2 346.078 452.917 347.044 452.35C348.028 451.783 348.794 450.975 349.344 449.925C349.911 448.875 350.194 447.658 350.194 446.275C350.194 444.875 349.911 443.658 349.344 442.625C348.794 441.575 348.036 440.767 347.069 440.2C346.103 439.633 345.003 439.35 343.769 439.35C342.536 439.35 341.436 439.633 340.469 440.2C339.503 440.767 338.736 441.575 338.169 442.625C337.619 443.658 337.344 444.875 337.344 446.275C337.344 447.658 337.619 448.875 338.169 449.925C338.736 450.975 339.503 451.783 340.469 452.35C341.453 452.917 342.553 453.2 343.769 453.2Z" fill="white"/>
</svg>
