<svg width="29" height="30" viewBox="0 0 29 30" fill="none" xmlns="http://www.w3.org/2000/svg">
<rect width="29" height="30" rx="9" fill="#7F5539"/>
<g clip-path="url(#clip0_86_6)">
<path d="M11.4321 5.72598L11.1429 6.3125H7.28571C6.57455 6.3125 6 6.89902 6 7.625C6 8.35098 6.57455 8.9375 7.28571 8.9375H22.7143C23.4254 8.9375 24 8.35098 24 7.625C24 6.89902 23.4254 6.3125 22.7143 6.3125H18.8571L18.5679 5.72598C18.3509 5.27891 17.9049 5 17.4188 5H12.5813C12.0951 5 11.6491 5.27891 11.4321 5.72598ZM22.7143 10.25H7.28571L8.1375 24.1543C8.20179 25.192 9.04554 26 10.0621 26H19.9379C20.9545 26 21.7982 25.192 21.8625 24.1543L22.7143 10.25Z" fill="white"/>
</g>
<defs>
<clipPath id="clip0_86_6">
<rect width="18" height="21" fill="white" transform="translate(6 5)"/>
</clipPath>
</defs>
</svg>
