<svg width="60" height="60" viewBox="0 0 60 60" fill="none" xmlns="http://www.w3.org/2000/svg">
<ellipse cx="30" cy="29.801" rx="30" ry="29.5" fill="#EDE0D4"/>
<path d="M38.625 33.051C40.189 33.0453 41.7181 32.5882 43.0287 31.7348L43.5 31.426C43.7617 31.2486 44.0065 31.0473 44.2313 30.8248L44.5725 30.4998C44.8585 30.2081 45.1194 29.8928 45.3525 29.5573L45.45 29.4273C45.7132 29.0391 45.9364 28.6254 46.1163 28.1923C46.1747 28.0717 46.2236 27.9468 46.2625 27.8185C46.3975 27.4863 46.5062 27.144 46.5875 26.7948L46.685 26.3885C46.7466 25.9036 46.7684 25.4145 46.75 24.926V13.551L41.875 18.426H35.375L30.5 13.551V24.926C30.5 27.0809 31.356 29.1475 32.8798 30.6713C34.4035 32.195 36.4701 33.051 38.625 33.051ZM41.875 21.676C42.1964 21.676 42.5106 21.7713 42.7778 21.9499C43.045 22.1284 43.2533 22.3822 43.3763 22.6792C43.4993 22.9761 43.5315 23.3028 43.4688 23.618C43.4061 23.9333 43.2513 24.2228 43.024 24.4501C42.7968 24.6773 42.5072 24.8321 42.192 24.8948C41.8768 24.9575 41.5501 24.9253 41.2531 24.8023C40.9562 24.6793 40.7024 24.4711 40.5239 24.2038C40.3453 23.9366 40.25 23.6224 40.25 23.301C40.25 22.87 40.4212 22.4567 40.726 22.152C41.0307 21.8472 41.444 21.676 41.875 21.676ZM35.375 21.676C35.6964 21.676 36.0106 21.7713 36.2778 21.9499C36.545 22.1284 36.7533 22.3822 36.8763 22.6792C36.9993 22.9761 37.0315 23.3028 36.9688 23.618C36.9061 23.9333 36.7513 24.2228 36.524 24.4501C36.2968 24.6773 36.0072 24.8321 35.692 24.8948C35.3768 24.9575 35.0501 24.9253 34.7531 24.8023C34.4562 24.6793 34.2024 24.4711 34.0239 24.2038C33.8453 23.9366 33.75 23.6224 33.75 23.301C33.75 22.87 33.9212 22.4567 34.226 22.152C34.5307 21.8472 34.944 21.676 35.375 21.676Z" fill="#B08968"/>
<path d="M28.875 46.051V37.926H24V46.051H19.125V29.6385C18.2985 29.5185 17.5087 29.2173 16.812 28.7566C16.1154 28.296 15.5291 27.6871 15.095 26.9735C14.5703 26.1095 14.2791 25.124 14.25 24.1135C14.2795 23.3051 14.474 22.5112 14.8217 21.7807C15.1693 21.0502 15.6627 20.3986 16.2716 19.8658C16.8804 19.3331 17.5918 18.9306 18.3619 18.683C19.1321 18.4354 19.9448 18.3479 20.75 18.426C21.1836 18.4521 21.6178 18.3859 22.0239 18.2318C22.43 18.0777 22.7988 17.8392 23.106 17.532C23.4131 17.2249 23.6516 16.8561 23.8057 16.4499C23.9599 16.0438 24.0261 15.6096 24 15.176C24 14.745 24.1712 14.3317 24.476 14.027C24.7807 13.7222 25.194 13.551 25.625 13.551C26.056 13.551 26.4693 13.7222 26.774 14.027C27.0788 14.3317 27.25 14.745 27.25 15.176C27.2747 16.0363 27.1234 16.8926 26.8055 17.6924C26.4876 18.4922 26.0097 19.2186 25.4012 19.8272C24.7926 20.4358 24.0661 20.9136 23.2664 21.2316C22.4666 21.5495 21.6103 21.7007 20.75 21.676C17.8088 21.676 17.5 23.561 17.5 24.1298C17.5 24.6985 17.7925 26.551 20.75 26.551H29.0213C29.2599 27.9509 29.8016 29.2818 30.6082 30.4506C31.4149 31.6193 32.4672 32.5978 33.6914 33.3175C34.9157 34.0371 36.2823 34.4807 37.6959 34.6171C39.1094 34.7536 40.5357 34.5796 41.875 34.1073V46.051H37V37.926H33.75V46.051H28.875Z" fill="#B08968"/>
</svg>
