<svg width="114" height="111" viewBox="0 0 114 111" fill="none" xmlns="http://www.w3.org/2000/svg">
<ellipse cx="56.7374" cy="55.3462" rx="56.7374" ry="55.3462" fill="#D8D8D8"/>
<path d="M113.561 55.3462C113.561 85.9131 88.1585 110.692 56.8233 110.692C25.4881 110.692 0.0859375 85.9131 0.0859375 55.3462C0.0859375 24.7793 25.4881 0 56.8233 0C88.1585 0 113.561 24.7793 113.561 55.3462Z" fill="#B08968"/>
<ellipse cx="56.07" cy="33.8589" rx="25.0312" ry="24.4175" fill="#B08968"/>
<path d="M66.8125 46.7964C73.8422 46.7964 78.1681 36.4821 78.1681 29.9678C78.1681 24.5393 75.4644 18.025 70.057 18.025C63.0274 18.025 58.7014 28.3393 58.7014 34.8535C58.7014 40.2821 61.4051 46.7964 66.8125 46.7964ZM46.2644 46.7964C51.6718 46.7964 54.3755 40.2821 54.3755 34.8535C54.3755 27.7964 50.0496 17.4821 43.0199 17.4821C37.6125 17.4821 34.9088 23.9964 34.9088 29.425C34.3681 36.4821 38.694 46.7964 46.2644 46.7964ZM86.2792 41.3678C79.2496 41.3678 74.3829 51.1393 74.3829 58.1964C74.3829 63.0821 76.5459 67.9678 81.4125 67.9678C88.4422 67.9678 93.3088 58.1964 93.3088 51.1393C93.3088 46.2535 90.6051 41.3678 86.2792 41.3678ZM39.2348 58.1964C39.2348 51.1393 33.8274 41.3678 27.3385 41.3678C22.4718 41.3678 20.3088 46.2535 20.3088 51.1393C20.3088 58.1964 25.7162 67.9678 32.2051 67.9678C37.0718 67.9678 39.2348 63.0821 39.2348 58.1964ZM56.5385 57.1107C45.7237 57.1107 31.1237 74.4821 31.1237 86.425C31.1237 91.8535 34.9088 93.4821 39.2348 93.4821C45.7237 93.4821 50.5903 89.1393 56.5385 89.1393C61.9459 89.1393 66.8125 93.4821 72.7607 93.4821C77.0866 93.4821 81.9533 92.3964 81.9533 86.425C81.9533 74.4821 67.3533 57.1107 56.5385 57.1107Z" fill="#EDE0D4"/>
</svg>
