<svg width="364" height="351" viewBox="0 0 364 351" fill="none" xmlns="http://www.w3.org/2000/svg">
<path d="M37.6 273.688V186.921C37.6 122.982 77.7263 65.9445 137.769 44.5922L237.468 9.14258C250.04 4.65977 263.2 14.0383 263.2 27.3688C263.2 33.857 259.969 39.8734 254.623 43.4715L235 56.625C263.259 56.625 288.58 74.2023 298.509 100.804L327.061 177.189C333.994 195.71 329.47 216.591 315.546 230.57C306.146 240.007 293.339 245.375 280.003 245.375H278.005C262.671 245.375 248.101 238.533 238.29 226.677L219.314 203.85C212.44 206.268 205.096 207.625 197.4 207.625H197.341C193.64 207.625 189.998 207.33 186.414 206.74C184.299 206.386 182.184 205.914 180.128 205.384C163.149 200.783 148.931 189.576 140.295 174.594C137.71 170.111 131.953 168.518 127.429 171.173C122.905 173.827 121.378 179.548 124.021 184.09C138.121 208.569 164.148 225.379 194.11 226.5L221.84 268.261C224.19 271.859 225.483 276.047 225.483 280.294C225.483 292.268 215.789 302 203.863 302H65.8C50.2313 302 37.6 289.318 37.6 273.688ZM230.3 132.125C232.152 132.125 233.985 131.759 235.696 131.047C237.407 130.336 238.961 129.293 240.27 127.979C241.58 126.664 242.618 125.104 243.327 123.386C244.035 121.669 244.4 119.828 244.4 117.969C244.4 116.11 244.035 114.269 243.327 112.551C242.618 110.834 241.58 109.273 240.27 107.959C238.961 106.644 237.407 105.602 235.696 104.89C233.985 104.179 232.152 103.813 230.3 103.813C228.448 103.813 226.615 104.179 224.904 104.89C223.193 105.602 221.639 106.644 220.33 107.959C219.021 109.273 217.982 110.834 217.273 112.551C216.565 114.269 216.2 116.11 216.2 117.969C216.2 119.828 216.565 121.669 217.273 123.386C217.982 125.104 219.021 126.664 220.33 127.979C221.639 129.293 223.193 130.336 224.904 131.047C226.615 131.759 228.448 132.125 230.3 132.125Z" fill="#7F5539"/>
<g filter="url(#filter0_d_69_584)">
<mask id="path-2-outside-1_69_584" maskUnits="userSpaceOnUse" x="162" y="274" width="140" height="70" fill="black">
<rect fill="white" x="162" y="274" width="140" height="70"/>
<path d="M196.23 313.15H174.95L171.03 324H164.31L181.95 275.49H189.3L206.87 324H200.15L196.23 313.15ZM194.41 307.97L185.59 283.33L176.77 307.97H194.41ZM220.928 292.71C222.188 290.517 224.055 288.697 226.528 287.25C229.048 285.757 231.965 285.01 235.278 285.01C238.685 285.01 241.765 285.827 244.518 287.46C247.318 289.093 249.511 291.403 251.098 294.39C252.685 297.33 253.478 300.76 253.478 304.68C253.478 308.553 252.685 312.007 251.098 315.04C249.511 318.073 247.318 320.43 244.518 322.11C241.765 323.79 238.685 324.63 235.278 324.63C232.011 324.63 229.118 323.907 226.598 322.46C224.125 320.967 222.235 319.123 220.928 316.93V342.2H214.558V285.64H220.928V292.71ZM246.968 304.68C246.968 301.787 246.385 299.267 245.218 297.12C244.051 294.973 242.465 293.34 240.458 292.22C238.498 291.1 236.328 290.54 233.948 290.54C231.615 290.54 229.445 291.123 227.438 292.29C225.478 293.41 223.891 295.067 222.678 297.26C221.511 299.407 220.928 301.903 220.928 304.75C220.928 307.643 221.511 310.187 222.678 312.38C223.891 314.527 225.478 316.183 227.438 317.35C229.445 318.47 231.615 319.03 233.948 319.03C236.328 319.03 238.498 318.47 240.458 317.35C242.465 316.183 244.051 314.527 245.218 312.38C246.385 310.187 246.968 307.62 246.968 304.68ZM268.233 292.71C269.493 290.517 271.359 288.697 273.833 287.25C276.353 285.757 279.269 285.01 282.583 285.01C285.989 285.01 289.069 285.827 291.823 287.46C294.623 289.093 296.816 291.403 298.403 294.39C299.989 297.33 300.783 300.76 300.783 304.68C300.783 308.553 299.989 312.007 298.403 315.04C296.816 318.073 294.623 320.43 291.823 322.11C289.069 323.79 285.989 324.63 282.583 324.63C279.316 324.63 276.423 323.907 273.903 322.46C271.429 320.967 269.539 319.123 268.233 316.93V342.2H261.863V285.64H268.233V292.71ZM294.273 304.68C294.273 301.787 293.689 299.267 292.523 297.12C291.356 294.973 289.769 293.34 287.763 292.22C285.803 291.1 283.633 290.54 281.253 290.54C278.919 290.54 276.749 291.123 274.743 292.29C272.783 293.41 271.196 295.067 269.983 297.26C268.816 299.407 268.233 301.903 268.233 304.75C268.233 307.643 268.816 310.187 269.983 312.38C271.196 314.527 272.783 316.183 274.743 317.35C276.749 318.47 278.919 319.03 281.253 319.03C283.633 319.03 285.803 318.47 287.763 317.35C289.769 316.183 291.356 314.527 292.523 312.38C293.689 310.187 294.273 307.62 294.273 304.68Z"/>
</mask>
<path d="M196.23 313.15H174.95L171.03 324H164.31L181.95 275.49H189.3L206.87 324H200.15L196.23 313.15ZM194.41 307.97L185.59 283.33L176.77 307.97H194.41ZM220.928 292.71C222.188 290.517 224.055 288.697 226.528 287.25C229.048 285.757 231.965 285.01 235.278 285.01C238.685 285.01 241.765 285.827 244.518 287.46C247.318 289.093 249.511 291.403 251.098 294.39C252.685 297.33 253.478 300.76 253.478 304.68C253.478 308.553 252.685 312.007 251.098 315.04C249.511 318.073 247.318 320.43 244.518 322.11C241.765 323.79 238.685 324.63 235.278 324.63C232.011 324.63 229.118 323.907 226.598 322.46C224.125 320.967 222.235 319.123 220.928 316.93V342.2H214.558V285.64H220.928V292.71ZM246.968 304.68C246.968 301.787 246.385 299.267 245.218 297.12C244.051 294.973 242.465 293.34 240.458 292.22C238.498 291.1 236.328 290.54 233.948 290.54C231.615 290.54 229.445 291.123 227.438 292.29C225.478 293.41 223.891 295.067 222.678 297.26C221.511 299.407 220.928 301.903 220.928 304.75C220.928 307.643 221.511 310.187 222.678 312.38C223.891 314.527 225.478 316.183 227.438 317.35C229.445 318.47 231.615 319.03 233.948 319.03C236.328 319.03 238.498 318.47 240.458 317.35C242.465 316.183 244.051 314.527 245.218 312.38C246.385 310.187 246.968 307.62 246.968 304.68ZM268.233 292.71C269.493 290.517 271.359 288.697 273.833 287.25C276.353 285.757 279.269 285.01 282.583 285.01C285.989 285.01 289.069 285.827 291.823 287.46C294.623 289.093 296.816 291.403 298.403 294.39C299.989 297.33 300.783 300.76 300.783 304.68C300.783 308.553 299.989 312.007 298.403 315.04C296.816 318.073 294.623 320.43 291.823 322.11C289.069 323.79 285.989 324.63 282.583 324.63C279.316 324.63 276.423 323.907 273.903 322.46C271.429 320.967 269.539 319.123 268.233 316.93V342.2H261.863V285.64H268.233V292.71ZM294.273 304.68C294.273 301.787 293.689 299.267 292.523 297.12C291.356 294.973 289.769 293.34 287.763 292.22C285.803 291.1 283.633 290.54 281.253 290.54C278.919 290.54 276.749 291.123 274.743 292.29C272.783 293.41 271.196 295.067 269.983 297.26C268.816 299.407 268.233 301.903 268.233 304.75C268.233 307.643 268.816 310.187 269.983 312.38C271.196 314.527 272.783 316.183 274.743 317.35C276.749 318.47 278.919 319.03 281.253 319.03C283.633 319.03 285.803 318.47 287.763 317.35C289.769 316.183 291.356 314.527 292.523 312.38C293.689 310.187 294.273 307.62 294.273 304.68Z" fill="#DDB892"/>
<path d="M196.23 313.15L197.171 312.81L196.932 312.15H196.23V313.15ZM174.95 313.15V312.15H174.248L174.01 312.81L174.95 313.15ZM171.03 324V325H171.732L171.971 324.34L171.03 324ZM164.31 324L163.37 323.658L162.882 325H164.31V324ZM181.95 275.49V274.49H181.25L181.01 275.148L181.95 275.49ZM189.3 275.49L190.24 275.149L190.001 274.49H189.3V275.49ZM206.87 324V325H208.296L207.81 323.659L206.87 324ZM200.15 324L199.21 324.34L199.448 325H200.15V324ZM194.41 307.97V308.97H195.83L195.352 307.633L194.41 307.97ZM185.59 283.33L186.532 282.993L185.59 280.363L184.649 282.993L185.59 283.33ZM176.77 307.97L175.829 307.633L175.35 308.97H176.77V307.97ZM196.23 312.15H174.95V314.15H196.23V312.15ZM174.01 312.81L170.09 323.66L171.971 324.34L175.891 313.49L174.01 312.81ZM171.03 323H164.31V325H171.03V323ZM165.25 324.342L182.89 275.832L181.01 275.148L163.37 323.658L165.25 324.342ZM181.95 276.49H189.3V274.49H181.95V276.49ZM188.36 275.831L205.93 324.341L207.81 323.659L190.24 275.149L188.36 275.831ZM206.87 323H200.15V325H206.87V323ZM201.091 323.66L197.171 312.81L195.29 313.49L199.21 324.34L201.091 323.66ZM195.352 307.633L186.532 282.993L184.649 283.667L193.469 308.307L195.352 307.633ZM184.649 282.993L175.829 307.633L177.712 308.307L186.532 283.667L184.649 282.993ZM176.77 308.97H194.41V306.97H176.77V308.97ZM220.928 292.71H219.928V296.458L221.795 293.208L220.928 292.71ZM226.528 287.25L227.033 288.113L227.038 288.11L226.528 287.25ZM244.518 287.46L244.008 288.32L244.014 288.324L244.518 287.46ZM251.098 294.39L250.215 294.859L250.218 294.865L251.098 294.39ZM251.098 315.04L251.984 315.503L251.984 315.503L251.098 315.04ZM244.518 322.11L244.003 321.252L243.997 321.256L244.518 322.11ZM226.598 322.46L226.081 323.316L226.091 323.322L226.1 323.327L226.598 322.46ZM220.928 316.93L221.787 316.418L219.928 313.298V316.93H220.928ZM220.928 342.2V343.2H221.928V342.2H220.928ZM214.558 342.2H213.558V343.2H214.558V342.2ZM214.558 285.64V284.64H213.558V285.64H214.558ZM220.928 285.64H221.928V284.64H220.928V285.64ZM245.218 297.12L246.097 296.642L246.097 296.642L245.218 297.12ZM240.458 292.22L239.962 293.088L239.971 293.093L240.458 292.22ZM227.438 292.29L227.934 293.158L227.941 293.155L227.438 292.29ZM222.678 297.26L221.803 296.776L221.799 296.782L222.678 297.26ZM222.678 312.38L221.795 312.85L221.801 312.861L221.807 312.872L222.678 312.38ZM227.438 317.35L226.926 318.209L226.938 318.216L226.951 318.223L227.438 317.35ZM240.458 317.35L240.954 318.218L240.961 318.215L240.458 317.35ZM245.218 312.38L246.097 312.858L246.101 312.85L245.218 312.38ZM221.795 293.208C222.957 291.185 224.69 289.484 227.033 288.113L226.023 286.387C223.42 287.91 221.419 289.848 220.061 292.212L221.795 293.208ZM227.038 288.11C229.384 286.72 232.12 286.01 235.278 286.01V284.01C231.809 284.01 228.712 284.793 226.018 286.39L227.038 288.11ZM235.278 286.01C238.517 286.01 241.419 286.784 244.008 288.32L245.028 286.6C242.11 284.869 238.852 284.01 235.278 284.01V286.01ZM244.014 288.324C246.646 289.859 248.711 292.029 250.215 294.859L251.981 293.921C250.311 290.777 247.99 288.327 245.022 286.596L244.014 288.324ZM250.218 294.865C251.713 297.636 252.478 300.897 252.478 304.68H254.478C254.478 300.623 253.656 297.024 251.978 293.915L250.218 294.865ZM252.478 304.68C252.478 308.413 251.714 311.704 250.212 314.577L251.984 315.503C253.655 312.309 254.478 308.693 254.478 304.68H252.478ZM250.212 314.577C248.706 317.455 246.638 319.672 244.003 321.253L245.032 322.967C247.998 321.188 250.316 318.692 251.984 315.503L250.212 314.577ZM243.997 321.256C241.41 322.835 238.512 323.63 235.278 323.63V325.63C238.858 325.63 242.12 324.745 245.039 322.964L243.997 321.256ZM235.278 323.63C232.164 323.63 229.446 322.942 227.096 321.593L226.1 323.327C228.79 324.871 231.859 325.63 235.278 325.63V323.63ZM227.115 321.604C224.763 320.184 222.999 318.453 221.787 316.418L220.069 317.442C221.47 319.794 223.486 321.749 226.081 323.316L227.115 321.604ZM219.928 316.93V342.2H221.928V316.93H219.928ZM220.928 341.2H214.558V343.2H220.928V341.2ZM215.558 342.2V285.64H213.558V342.2H215.558ZM214.558 286.64H220.928V284.64H214.558V286.64ZM219.928 285.64V292.71H221.928V285.64H219.928ZM247.968 304.68C247.968 301.651 247.356 298.961 246.097 296.642L244.339 297.598C245.413 299.573 245.968 301.923 245.968 304.68H247.968ZM246.097 296.642C244.846 294.341 243.128 292.565 240.945 291.347L239.971 293.093C241.801 294.115 243.257 295.606 244.339 297.598L246.097 296.642ZM240.954 291.352C238.835 290.141 236.492 289.54 233.948 289.54V291.54C236.164 291.54 238.161 292.059 239.962 293.088L240.954 291.352ZM233.948 289.54C231.439 289.54 229.095 290.17 226.935 291.425L227.941 293.155C229.794 292.077 231.79 291.54 233.948 291.54V289.54ZM226.942 291.422C224.806 292.642 223.095 294.44 221.803 296.776L223.553 297.744C224.688 295.693 226.15 294.178 227.934 293.158L226.942 291.422ZM221.799 296.782C220.541 299.098 219.928 301.764 219.928 304.75H221.928C221.928 302.042 222.482 299.715 223.557 297.738L221.799 296.782ZM219.928 304.75C219.928 307.78 220.54 310.49 221.795 312.85L223.561 311.91C222.483 309.884 221.928 307.507 221.928 304.75H219.928ZM221.807 312.872C223.099 315.158 224.805 316.946 226.926 318.209L227.949 316.491C226.151 315.42 224.683 313.896 223.549 311.888L221.807 312.872ZM226.951 318.223C229.109 319.428 231.447 320.03 233.948 320.03V318.03C231.783 318.03 229.781 317.512 227.925 316.477L226.951 318.223ZM233.948 320.03C236.492 320.03 238.835 319.429 240.954 318.218L239.962 316.482C238.161 317.511 236.164 318.03 233.948 318.03V320.03ZM240.961 318.215C243.134 316.951 244.847 315.156 246.097 312.858L244.339 311.902C243.255 313.897 241.795 315.416 239.955 316.485L240.961 318.215ZM246.101 312.85C247.357 310.487 247.968 307.754 247.968 304.68H245.968C245.968 307.486 245.412 309.886 244.335 311.91L246.101 312.85ZM268.233 292.71H267.233V296.458L269.1 293.208L268.233 292.71ZM273.833 287.25L274.338 288.113L274.342 288.11L273.833 287.25ZM291.823 287.46L291.312 288.32L291.319 288.324L291.823 287.46ZM298.403 294.39L297.52 294.859L297.523 294.865L298.403 294.39ZM298.403 315.04L299.289 315.503L299.289 315.503L298.403 315.04ZM291.823 322.11L291.308 321.252L291.302 321.256L291.823 322.11ZM273.903 322.46L273.386 323.316L273.395 323.322L273.405 323.327L273.903 322.46ZM268.233 316.93L269.092 316.418L267.233 313.298V316.93H268.233ZM268.233 342.2V343.2H269.233V342.2H268.233ZM261.863 342.2H260.863V343.2H261.863V342.2ZM261.863 285.64V284.64H260.863V285.64H261.863ZM268.233 285.64H269.233V284.64H268.233V285.64ZM292.523 297.12L293.401 296.642L293.401 296.642L292.523 297.12ZM287.763 292.22L287.266 293.088L287.275 293.093L287.763 292.22ZM274.743 292.29L275.239 293.158L275.245 293.155L274.743 292.29ZM269.983 297.26L269.108 296.776L269.104 296.782L269.983 297.26ZM269.983 312.38L269.1 312.85L269.106 312.861L269.112 312.872L269.983 312.38ZM274.743 317.35L274.231 318.209L274.243 318.216L274.255 318.223L274.743 317.35ZM287.763 317.35L288.259 318.218L288.265 318.215L287.763 317.35ZM292.523 312.38L293.401 312.858L293.406 312.85L292.523 312.38ZM269.1 293.208C270.262 291.185 271.994 289.484 274.338 288.113L273.328 286.387C270.724 287.91 268.723 289.848 267.366 292.212L269.1 293.208ZM274.342 288.11C276.689 286.72 279.425 286.01 282.583 286.01V284.01C279.114 284.01 276.017 284.793 273.323 286.39L274.342 288.11ZM282.583 286.01C285.822 286.01 288.724 286.784 291.312 288.32L292.333 286.6C289.415 284.869 286.157 284.01 282.583 284.01V286.01ZM291.319 288.324C293.951 289.859 296.016 292.029 297.52 294.859L299.286 293.921C297.616 290.777 295.294 288.327 292.327 286.596L291.319 288.324ZM297.523 294.865C299.018 297.636 299.783 300.897 299.783 304.68H301.783C301.783 300.623 300.961 297.024 299.283 293.915L297.523 294.865ZM299.783 304.68C299.783 308.413 299.019 311.704 297.517 314.577L299.289 315.503C300.96 312.309 301.783 308.693 301.783 304.68H299.783ZM297.517 314.577C296.011 317.455 293.943 319.672 291.308 321.253L292.337 322.967C295.303 321.188 297.621 318.692 299.289 315.503L297.517 314.577ZM291.302 321.256C288.714 322.835 285.816 323.63 282.583 323.63V325.63C286.162 325.63 289.424 324.745 292.344 322.964L291.302 321.256ZM282.583 323.63C279.469 323.63 276.751 322.942 274.401 321.593L273.405 323.327C276.094 324.871 279.163 325.63 282.583 325.63V323.63ZM274.42 321.604C272.068 320.184 270.304 318.453 269.092 316.418L267.374 317.442C268.775 319.794 270.791 321.749 273.386 323.316L274.42 321.604ZM267.233 316.93V342.2H269.233V316.93H267.233ZM268.233 341.2H261.863V343.2H268.233V341.2ZM262.863 342.2V285.64H260.863V342.2H262.863ZM261.863 286.64H268.233V284.64H261.863V286.64ZM267.233 285.64V292.71H269.233V285.64H267.233ZM295.273 304.68C295.273 301.651 294.661 298.961 293.401 296.642L291.644 297.598C292.718 299.573 293.273 301.923 293.273 304.68H295.273ZM293.401 296.642C292.15 294.341 290.433 292.565 288.25 291.347L287.275 293.093C289.106 294.115 290.562 295.606 291.644 297.598L293.401 296.642ZM288.259 291.352C286.139 290.141 283.797 289.54 281.253 289.54V291.54C283.468 291.54 285.466 292.059 287.267 293.088L288.259 291.352ZM281.253 289.54C278.744 289.54 276.4 290.17 274.24 291.425L275.245 293.155C277.098 292.077 279.095 291.54 281.253 291.54V289.54ZM274.247 291.422C272.11 292.642 270.4 294.44 269.108 296.776L270.858 297.744C271.992 295.693 273.455 294.178 275.239 293.158L274.247 291.422ZM269.104 296.782C267.845 299.098 267.233 301.764 267.233 304.75H269.233C269.233 302.042 269.787 299.715 270.861 297.738L269.104 296.782ZM267.233 304.75C267.233 307.78 267.844 310.49 269.1 312.85L270.866 311.91C269.788 309.884 269.233 307.507 269.233 304.75H267.233ZM269.112 312.872C270.404 315.158 272.11 316.946 274.231 318.209L275.254 316.491C273.456 315.42 271.988 313.896 270.853 311.888L269.112 312.872ZM274.255 318.223C276.413 319.428 278.751 320.03 281.253 320.03V318.03C279.087 318.03 277.085 317.512 275.23 316.477L274.255 318.223ZM281.253 320.03C283.797 320.03 286.139 319.429 288.259 318.218L287.267 316.482C285.466 317.511 283.468 318.03 281.253 318.03V320.03ZM288.265 318.215C290.439 316.951 292.152 315.156 293.401 312.858L291.644 311.902C290.56 313.897 289.1 315.416 287.26 316.485L288.265 318.215ZM293.406 312.85C294.662 310.487 295.273 307.754 295.273 304.68H293.273C293.273 307.486 292.717 309.886 291.64 311.91L293.406 312.85Z" fill="#DDB892" mask="url(#path-2-outside-1_69_584)"/>
</g>
<g filter="url(#filter1_d_69_584)">
<mask id="path-4-outside-2_69_584" maskUnits="userSpaceOnUse" x="5" y="209" width="159" height="59" fill="black">
<rect fill="white" x="5" y="209" width="159" height="59"/>
<path d="M43.44 226.56C43.44 231.2 41.84 235.067 38.64 238.16C35.4933 241.2 30.6667 242.72 24.16 242.72H13.44V266H6.16V210.24H24.16C30.4533 210.24 35.2267 211.76 38.48 214.8C41.7867 217.84 43.44 221.76 43.44 226.56ZM24.16 236.72C28.2133 236.72 31.2 235.84 33.12 234.08C35.04 232.32 36 229.813 36 226.56C36 219.68 32.0533 216.24 24.16 216.24H13.44V236.72H24.16ZM92.4881 242.4C92.4881 243.787 92.4081 245.253 92.2481 246.8H57.2081C57.4748 251.12 58.9415 254.507 61.6081 256.96C64.3281 259.36 67.6081 260.56 71.4481 260.56C74.5948 260.56 77.2081 259.84 79.2881 258.4C81.4215 256.907 82.9148 254.933 83.7681 252.48H91.6081C90.4348 256.693 88.0881 260.133 84.5681 262.8C81.0481 265.413 76.6748 266.72 71.4481 266.72C67.2881 266.72 63.5548 265.787 60.2481 263.92C56.9948 262.053 54.4348 259.413 52.5681 256C50.7015 252.533 49.7681 248.533 49.7681 244C49.7681 239.467 50.6748 235.493 52.4881 232.08C54.3015 228.667 56.8348 226.053 60.0881 224.24C63.3948 222.373 67.1815 221.44 71.4481 221.44C75.6081 221.44 79.2881 222.347 82.4881 224.16C85.6881 225.973 88.1415 228.48 89.8481 231.68C91.6081 234.827 92.4881 238.4 92.4881 242.4ZM84.9681 240.88C84.9681 238.107 84.3548 235.733 83.1281 233.76C81.9015 231.733 80.2215 230.213 78.0881 229.2C76.0081 228.133 73.6881 227.6 71.1281 227.6C67.4481 227.6 64.3015 228.773 61.6881 231.12C59.1281 233.467 57.6615 236.72 57.2881 240.88H84.9681ZM110.978 228.16V254C110.978 256.133 111.431 257.653 112.338 258.56C113.244 259.413 114.818 259.84 117.057 259.84H122.418V266H115.858C111.804 266 108.764 265.067 106.738 263.2C104.711 261.333 103.698 258.267 103.698 254V228.16H98.0175V222.16H103.698V211.12H110.978V222.16H122.418V228.16H110.978ZM146.758 266.72C143.398 266.72 140.385 266.16 137.718 265.04C135.051 263.867 132.945 262.267 131.398 260.24C129.851 258.16 128.998 255.787 128.838 253.12H136.358C136.571 255.307 137.585 257.093 139.398 258.48C141.265 259.867 143.691 260.56 146.678 260.56C149.451 260.56 151.638 259.947 153.238 258.72C154.838 257.493 155.638 255.947 155.638 254.08C155.638 252.16 154.785 250.747 153.078 249.84C151.371 248.88 148.731 247.947 145.158 247.04C141.905 246.187 139.238 245.333 137.158 244.48C135.131 243.573 133.371 242.267 131.878 240.56C130.438 238.8 129.718 236.507 129.718 233.68C129.718 231.44 130.385 229.387 131.718 227.52C133.051 225.653 134.945 224.187 137.398 223.12C139.851 222 142.651 221.44 145.798 221.44C150.651 221.44 154.571 222.667 157.558 225.12C160.545 227.573 162.145 230.933 162.358 235.2H155.078C154.918 232.907 153.985 231.067 152.278 229.68C150.625 228.293 148.385 227.6 145.558 227.6C142.945 227.6 140.865 228.16 139.318 229.28C137.771 230.4 136.998 231.867 136.998 233.68C136.998 235.12 137.451 236.32 138.358 237.28C139.318 238.187 140.491 238.933 141.878 239.52C143.318 240.053 145.291 240.667 147.798 241.36C150.945 242.213 153.505 243.067 155.478 243.92C157.451 244.72 159.131 245.947 160.518 247.6C161.958 249.253 162.705 251.413 162.758 254.08C162.758 256.48 162.091 258.64 160.758 260.56C159.425 262.48 157.531 264 155.078 265.12C152.678 266.187 149.905 266.72 146.758 266.72Z"/>
</mask>
<path d="M43.44 226.56C43.44 231.2 41.84 235.067 38.64 238.16C35.4933 241.2 30.6667 242.72 24.16 242.72H13.44V266H6.16V210.24H24.16C30.4533 210.24 35.2267 211.76 38.48 214.8C41.7867 217.84 43.44 221.76 43.44 226.56ZM24.16 236.72C28.2133 236.72 31.2 235.84 33.12 234.08C35.04 232.32 36 229.813 36 226.56C36 219.68 32.0533 216.24 24.16 216.24H13.44V236.72H24.16ZM92.4881 242.4C92.4881 243.787 92.4081 245.253 92.2481 246.8H57.2081C57.4748 251.12 58.9415 254.507 61.6081 256.96C64.3281 259.36 67.6081 260.56 71.4481 260.56C74.5948 260.56 77.2081 259.84 79.2881 258.4C81.4215 256.907 82.9148 254.933 83.7681 252.48H91.6081C90.4348 256.693 88.0881 260.133 84.5681 262.8C81.0481 265.413 76.6748 266.72 71.4481 266.72C67.2881 266.72 63.5548 265.787 60.2481 263.92C56.9948 262.053 54.4348 259.413 52.5681 256C50.7015 252.533 49.7681 248.533 49.7681 244C49.7681 239.467 50.6748 235.493 52.4881 232.08C54.3015 228.667 56.8348 226.053 60.0881 224.24C63.3948 222.373 67.1815 221.44 71.4481 221.44C75.6081 221.44 79.2881 222.347 82.4881 224.16C85.6881 225.973 88.1415 228.48 89.8481 231.68C91.6081 234.827 92.4881 238.4 92.4881 242.4ZM84.9681 240.88C84.9681 238.107 84.3548 235.733 83.1281 233.76C81.9015 231.733 80.2215 230.213 78.0881 229.2C76.0081 228.133 73.6881 227.6 71.1281 227.6C67.4481 227.6 64.3015 228.773 61.6881 231.12C59.1281 233.467 57.6615 236.72 57.2881 240.88H84.9681ZM110.978 228.16V254C110.978 256.133 111.431 257.653 112.338 258.56C113.244 259.413 114.818 259.84 117.057 259.84H122.418V266H115.858C111.804 266 108.764 265.067 106.738 263.2C104.711 261.333 103.698 258.267 103.698 254V228.16H98.0175V222.16H103.698V211.12H110.978V222.16H122.418V228.16H110.978ZM146.758 266.72C143.398 266.72 140.385 266.16 137.718 265.04C135.051 263.867 132.945 262.267 131.398 260.24C129.851 258.16 128.998 255.787 128.838 253.12H136.358C136.571 255.307 137.585 257.093 139.398 258.48C141.265 259.867 143.691 260.56 146.678 260.56C149.451 260.56 151.638 259.947 153.238 258.72C154.838 257.493 155.638 255.947 155.638 254.08C155.638 252.16 154.785 250.747 153.078 249.84C151.371 248.88 148.731 247.947 145.158 247.04C141.905 246.187 139.238 245.333 137.158 244.48C135.131 243.573 133.371 242.267 131.878 240.56C130.438 238.8 129.718 236.507 129.718 233.68C129.718 231.44 130.385 229.387 131.718 227.52C133.051 225.653 134.945 224.187 137.398 223.12C139.851 222 142.651 221.44 145.798 221.44C150.651 221.44 154.571 222.667 157.558 225.12C160.545 227.573 162.145 230.933 162.358 235.2H155.078C154.918 232.907 153.985 231.067 152.278 229.68C150.625 228.293 148.385 227.6 145.558 227.6C142.945 227.6 140.865 228.16 139.318 229.28C137.771 230.4 136.998 231.867 136.998 233.68C136.998 235.12 137.451 236.32 138.358 237.28C139.318 238.187 140.491 238.933 141.878 239.52C143.318 240.053 145.291 240.667 147.798 241.36C150.945 242.213 153.505 243.067 155.478 243.92C157.451 244.72 159.131 245.947 160.518 247.6C161.958 249.253 162.705 251.413 162.758 254.08C162.758 256.48 162.091 258.64 160.758 260.56C159.425 262.48 157.531 264 155.078 265.12C152.678 266.187 149.905 266.72 146.758 266.72Z" fill="#DDB892"/>
<path d="M38.64 238.16L39.3348 238.879L39.335 238.879L38.64 238.16ZM13.44 242.72V241.72H12.44V242.72H13.44ZM13.44 266V267H14.44V266H13.44ZM6.16 266H5.16V267H6.16V266ZM6.16 210.24V209.24H5.16V210.24H6.16ZM38.48 214.8L37.7972 215.531L37.8032 215.536L38.48 214.8ZM33.12 234.08L33.7957 234.817L33.7957 234.817L33.12 234.08ZM13.44 216.24V215.24H12.44V216.24H13.44ZM13.44 236.72H12.44V237.72H13.44V236.72ZM42.44 226.56C42.44 230.942 40.941 234.545 37.945 237.441L39.335 238.879C42.739 235.588 44.44 231.458 44.44 226.56H42.44ZM37.9452 237.441C35.0586 240.23 30.532 241.72 24.16 241.72V243.72C30.8013 243.72 35.9281 242.17 39.3348 238.879L37.9452 237.441ZM24.16 241.72H13.44V243.72H24.16V241.72ZM12.44 242.72V266H14.44V242.72H12.44ZM13.44 265H6.16V267H13.44V265ZM7.16 266V210.24H5.16V266H7.16ZM6.16 211.24H24.16V209.24H6.16V211.24ZM24.16 211.24C30.3047 211.24 34.7937 212.724 37.7973 215.531L39.1627 214.069C35.6596 210.796 30.6019 209.24 24.16 209.24V211.24ZM37.8032 215.536C40.8885 218.373 42.44 222.018 42.44 226.56H44.44C44.44 221.502 42.6848 217.307 39.1568 214.064L37.8032 215.536ZM24.16 237.72C28.3298 237.72 31.612 236.819 33.7957 234.817L32.4443 233.343C30.788 234.861 28.0969 235.72 24.16 235.72V237.72ZM33.7957 234.817C35.9717 232.822 37 230.019 37 226.56H35C35 229.608 34.1083 231.817 32.4443 233.343L33.7957 234.817ZM37 226.56C37 222.927 35.9517 220.031 33.6971 218.066C31.4687 216.124 28.2297 215.24 24.16 215.24V217.24C27.9837 217.24 30.6647 218.076 32.3829 219.574C34.0749 221.049 35 223.313 35 226.56H37ZM24.16 215.24H13.44V217.24H24.16V215.24ZM12.44 216.24V236.72H14.44V216.24H12.44ZM13.44 237.72H24.16V235.72H13.44V237.72ZM92.2481 246.8V247.8H93.15L93.2428 246.903L92.2481 246.8ZM57.2081 246.8V245.8H56.1445L56.21 246.862L57.2081 246.8ZM61.6081 256.96L60.9311 257.696L60.9387 257.703L60.9465 257.71L61.6081 256.96ZM79.2881 258.4L79.8573 259.222L79.8616 259.219L79.2881 258.4ZM83.7681 252.48V251.48H83.0572L82.8236 252.151L83.7681 252.48ZM91.6081 252.48L92.5715 252.748L92.9247 251.48H91.6081V252.48ZM84.5681 262.8L85.1643 263.603L85.172 263.597L84.5681 262.8ZM60.2481 263.92L59.7504 264.787L59.7565 264.791L60.2481 263.92ZM52.5681 256L51.6876 256.474L51.6908 256.48L52.5681 256ZM52.4881 232.08L53.3712 232.549L53.3712 232.549L52.4881 232.08ZM60.0881 224.24L60.575 225.113L60.5797 225.111L60.0881 224.24ZM82.4881 224.16L81.9951 225.03L81.9951 225.03L82.4881 224.16ZM89.8481 231.68L88.9658 232.151L88.9705 232.159L88.9754 232.168L89.8481 231.68ZM84.9681 240.88V241.88H85.9681V240.88H84.9681ZM83.1281 233.76L82.2726 234.278L82.2788 234.288L83.1281 233.76ZM78.0881 229.2L77.6318 230.09L77.6453 230.097L77.6591 230.103L78.0881 229.2ZM61.6881 231.12L61.02 230.376L61.0124 230.383L61.6881 231.12ZM57.2881 240.88L56.2921 240.791L56.1944 241.88H57.2881V240.88ZM91.4881 242.4C91.4881 243.748 91.4103 245.181 91.2534 246.697L93.2428 246.903C93.4059 245.326 93.4881 243.825 93.4881 242.4H91.4881ZM92.2481 245.8H57.2081V247.8H92.2481V245.8ZM56.21 246.862C56.4893 251.386 58.0383 255.035 60.9311 257.696L62.2852 256.224C59.8446 253.979 58.4603 250.854 58.2062 246.738L56.21 246.862ZM60.9465 257.71C63.8605 260.281 67.38 261.56 71.4481 261.56V259.56C67.8362 259.56 64.7957 258.439 62.2697 256.21L60.9465 257.71ZM71.4481 261.56C74.7482 261.56 77.5733 260.803 79.8573 259.222L78.7189 257.578C76.843 258.877 74.4414 259.56 71.4481 259.56V261.56ZM79.8616 259.219C82.1666 257.606 83.7901 255.461 84.7126 252.809L82.8236 252.151C82.0395 254.406 80.6763 256.208 78.7147 257.581L79.8616 259.219ZM83.7681 253.48H91.6081V251.48H83.7681V253.48ZM90.6448 252.212C89.5308 256.212 87.3116 259.467 83.9643 262.003L85.172 263.597C88.8646 260.8 91.3388 257.175 92.5715 252.748L90.6448 252.212ZM83.972 261.997C80.6557 264.459 76.5026 265.72 71.4481 265.72V267.72C76.847 267.72 81.4406 266.367 85.1642 263.603L83.972 261.997ZM71.4481 265.72C67.4435 265.72 63.8823 264.823 60.7397 263.049L59.7565 264.791C63.2273 266.75 67.1328 267.72 71.4481 267.72V265.72ZM60.7458 263.053C57.6585 261.281 55.2272 258.778 53.4455 255.52L51.6908 256.48C53.6424 260.049 56.3311 262.825 59.7505 264.787L60.7458 263.053ZM53.4486 255.526C51.6715 252.226 50.7681 248.393 50.7681 244H48.7681C48.7681 248.674 49.7314 252.841 51.6877 256.474L53.4486 255.526ZM50.7681 244C50.7681 239.602 51.6469 235.795 53.3712 232.549L51.605 231.611C49.7027 235.192 48.7681 239.331 48.7681 244H50.7681ZM53.3712 232.549C55.0978 229.299 57.4965 226.829 60.575 225.113L59.6013 223.367C56.1731 225.277 53.5051 228.034 51.605 231.611L53.3712 232.549ZM60.5797 225.111C63.7186 223.339 67.332 222.44 71.4481 222.44V220.44C67.0309 220.44 63.071 221.408 59.5965 223.369L60.5797 225.111ZM71.4481 222.44C75.4584 222.44 78.9643 223.313 81.9951 225.03L82.9811 223.29C79.6119 221.381 75.7579 220.44 71.4481 220.44V222.44ZM81.9951 225.03C85.0326 226.751 87.3497 229.12 88.9658 232.151L90.7305 231.209C88.9332 227.84 86.3437 225.195 82.9811 223.29L81.9951 225.03ZM88.9754 232.168C90.6431 235.15 91.4881 238.552 91.4881 242.4H93.4881C93.4881 238.248 92.5732 234.504 90.7209 231.192L88.9754 232.168ZM85.9681 240.88C85.9681 237.957 85.3202 235.392 83.9774 233.232L82.2788 234.288C83.3894 236.074 83.9681 238.257 83.9681 240.88H85.9681ZM83.9836 233.242C82.6559 231.049 80.8279 229.394 78.5172 228.297L77.6591 230.103C79.615 231.032 81.147 232.418 82.2726 234.278L83.9836 233.242ZM78.5444 228.31C76.3102 227.164 73.8314 226.6 71.1281 226.6V228.6C73.5448 228.6 75.7061 229.102 77.6318 230.09L78.5444 228.31ZM71.1281 226.6C67.2144 226.6 63.8262 227.856 61.02 230.376L62.3563 231.864C64.7767 229.691 67.6819 228.6 71.1281 228.6V226.6ZM61.0124 230.383C58.2328 232.931 56.683 236.435 56.2921 240.791L58.2841 240.969C58.6399 237.005 60.0235 234.003 62.3638 231.857L61.0124 230.383ZM57.2881 241.88H84.9681V239.88H57.2881V241.88ZM110.978 228.16V227.16H109.978V228.16H110.978ZM112.338 258.56L111.63 259.267L111.641 259.278L111.652 259.288L112.338 258.56ZM122.418 259.84H123.418V258.84H122.418V259.84ZM122.418 266V267H123.418V266H122.418ZM106.738 263.2L106.06 263.936L106.738 263.2ZM103.698 228.16H104.698V227.16H103.698V228.16ZM98.0175 228.16H97.0175V229.16H98.0175V228.16ZM98.0175 222.16V221.16H97.0175V222.16H98.0175ZM103.698 222.16V223.16H104.698V222.16H103.698ZM103.698 211.12V210.12H102.698V211.12H103.698ZM110.978 211.12H111.978V210.12H110.978V211.12ZM110.978 222.16H109.978V223.16H110.978V222.16ZM122.418 222.16H123.418V221.16H122.418V222.16ZM122.418 228.16V229.16H123.418V228.16H122.418ZM109.978 228.16V254H111.978V228.16H109.978ZM109.978 254C109.978 256.232 110.444 258.081 111.63 259.267L113.045 257.853C112.417 257.226 111.978 256.035 111.978 254H109.978ZM111.652 259.288C112.845 260.411 114.747 260.84 117.057 260.84V258.84C114.888 258.84 113.643 258.416 113.023 257.832L111.652 259.288ZM117.057 260.84H122.418V258.84H117.057V260.84ZM121.418 259.84V266H123.418V259.84H121.418ZM122.418 265H115.858V267H122.418V265ZM115.858 265C111.939 265 109.186 264.096 107.415 262.464L106.06 263.936C108.342 266.037 111.669 267 115.858 267V265ZM107.415 262.464C105.684 260.87 104.698 258.139 104.698 254H102.698C102.698 258.395 103.738 261.797 106.06 263.936L107.415 262.464ZM104.698 254V228.16H102.698V254H104.698ZM103.698 227.16H98.0175V229.16H103.698V227.16ZM99.0175 228.16V222.16H97.0175V228.16H99.0175ZM98.0175 223.16H103.698V221.16H98.0175V223.16ZM104.698 222.16V211.12H102.698V222.16H104.698ZM103.698 212.12H110.978V210.12H103.698V212.12ZM109.978 211.12V222.16H111.978V211.12H109.978ZM110.978 223.16H122.418V221.16H110.978V223.16ZM121.418 222.16V228.16H123.418V222.16H121.418ZM122.418 227.16H110.978V229.16H122.418V227.16ZM137.718 265.04L137.315 265.955L137.323 265.959L137.331 265.962L137.718 265.04ZM131.398 260.24L130.596 260.837L130.603 260.847L131.398 260.24ZM128.838 253.12V252.12H127.776L127.84 253.18L128.838 253.12ZM136.358 253.12L137.353 253.023L137.265 252.12H136.358V253.12ZM139.398 258.48L138.791 259.274L138.802 259.283L139.398 258.48ZM153.078 249.84L152.588 250.712L152.598 250.717L152.609 250.723L153.078 249.84ZM145.158 247.04L144.904 248.007L144.912 248.009L145.158 247.04ZM137.158 244.48L136.75 245.393L136.764 245.399L136.779 245.405L137.158 244.48ZM131.878 240.56L131.104 241.193L131.115 241.206L131.126 241.219L131.878 240.56ZM131.718 227.52L130.904 226.939L130.904 226.939L131.718 227.52ZM137.398 223.12L137.797 224.037L137.805 224.033L137.813 224.03L137.398 223.12ZM157.558 225.12L156.923 225.893L157.558 225.12ZM162.358 235.2V236.2H163.409L163.357 235.15L162.358 235.2ZM155.078 235.2L154.081 235.27L154.145 236.2H155.078V235.2ZM152.278 229.68L151.636 230.446L151.641 230.451L151.648 230.456L152.278 229.68ZM139.318 229.28L138.732 228.47L138.732 228.47L139.318 229.28ZM138.358 237.28L137.631 237.967L137.651 237.987L137.672 238.007L138.358 237.28ZM141.878 239.52L141.488 240.441L141.509 240.45L141.531 240.458L141.878 239.52ZM147.798 241.36L147.532 242.324L147.536 242.325L147.798 241.36ZM155.478 243.92L155.081 244.838L155.092 244.842L155.102 244.847L155.478 243.92ZM160.518 247.6L159.752 248.243L159.758 248.25L159.764 248.257L160.518 247.6ZM162.758 254.08H163.758V254.07L163.758 254.06L162.758 254.08ZM160.758 260.56L159.937 259.99L159.937 259.99L160.758 260.56ZM155.078 265.12L155.484 266.034L155.493 266.03L155.078 265.12ZM146.758 265.72C143.51 265.72 140.631 265.179 138.105 264.118L137.331 265.962C140.138 267.141 143.286 267.72 146.758 267.72V265.72ZM138.121 264.125C135.587 263.01 133.623 261.507 132.193 259.633L130.603 260.847C132.266 263.026 134.516 264.724 137.315 265.955L138.121 264.125ZM132.201 259.643C130.774 257.724 129.985 255.539 129.836 253.06L127.84 253.18C128.011 256.034 128.929 258.596 130.596 260.837L132.201 259.643ZM128.838 254.12H136.358V252.12H128.838V254.12ZM135.363 253.217C135.604 255.692 136.767 257.727 138.791 259.274L140.006 257.686C138.403 256.46 137.539 254.921 137.353 253.023L135.363 253.217ZM138.802 259.283C140.884 260.83 143.538 261.56 146.678 261.56V259.56C143.845 259.56 141.645 258.904 139.994 257.677L138.802 259.283ZM146.678 261.56C149.59 261.56 152.017 260.916 153.847 259.514L152.63 257.926C151.259 258.977 149.313 259.56 146.678 259.56V261.56ZM153.847 259.514C155.671 258.115 156.638 256.285 156.638 254.08H154.638C154.638 255.608 154.006 256.871 152.63 257.926L153.847 259.514ZM156.638 254.08C156.638 252.968 156.389 251.95 155.854 251.063C155.319 250.177 154.533 249.48 153.547 248.957L152.609 250.723C153.33 251.106 153.824 251.57 154.142 252.097C154.46 252.624 154.638 253.272 154.638 254.08H156.638ZM153.568 248.968C151.745 247.943 149.002 246.984 145.404 246.071L144.912 248.009C148.461 248.91 150.998 249.817 152.588 250.712L153.568 248.968ZM145.412 246.073C142.183 245.226 139.562 244.385 137.538 243.555L136.779 245.405C138.914 246.281 141.627 247.148 144.904 248.007L145.412 246.073ZM137.566 243.567C135.674 242.721 134.031 241.502 132.631 239.901L131.126 241.219C132.712 243.031 134.588 244.426 136.75 245.393L137.566 243.567ZM132.652 239.927C131.391 238.385 130.718 236.333 130.718 233.68H128.718C128.718 236.68 129.485 239.215 131.104 241.193L132.652 239.927ZM130.718 233.68C130.718 231.654 131.317 229.803 132.532 228.101L130.904 226.939C129.453 228.971 128.718 231.226 128.718 233.68H130.718ZM132.532 228.101C133.743 226.405 135.482 225.044 137.797 224.037L136.999 222.203C134.408 223.33 132.36 224.902 130.904 226.939L132.532 228.101ZM137.813 224.03C140.116 222.978 142.771 222.44 145.798 222.44V220.44C142.532 220.44 139.587 221.022 136.983 222.21L137.813 224.03ZM145.798 222.44C150.481 222.44 154.157 223.621 156.923 225.893L158.193 224.347C154.985 221.713 150.822 220.44 145.798 220.44V222.44ZM156.923 225.893C159.668 228.147 161.158 231.232 161.359 235.25L163.357 235.15C163.131 230.635 161.422 226.999 158.193 224.347L156.923 225.893ZM162.358 234.2H155.078V236.2H162.358V234.2ZM156.076 235.13C155.897 232.575 154.841 230.474 152.909 228.904L151.648 230.456C153.129 231.659 153.939 233.238 154.081 235.27L156.076 235.13ZM152.921 228.914C151.038 227.335 148.546 226.6 145.558 226.6V228.6C148.224 228.6 150.212 229.252 151.636 230.446L152.921 228.914ZM145.558 226.6C142.81 226.6 140.502 227.188 138.732 228.47L139.905 230.09C141.228 229.132 143.079 228.6 145.558 228.6V226.6ZM138.732 228.47C136.941 229.766 135.998 231.526 135.998 233.68H137.998C137.998 232.207 138.601 231.034 139.905 230.09L138.732 228.47ZM135.998 233.68C135.998 235.35 136.533 236.803 137.631 237.967L139.085 236.593C138.37 235.837 137.998 234.89 137.998 233.68H135.998ZM137.672 238.007C138.729 239.006 140.007 239.814 141.488 240.441L142.268 238.599C140.976 238.052 139.907 237.367 139.045 236.553L137.672 238.007ZM141.531 240.458C143.009 241.005 145.013 241.627 147.532 242.324L148.065 240.396C145.569 239.706 143.627 239.101 142.225 238.582L141.531 240.458ZM147.536 242.325C150.658 243.172 153.168 244.011 155.081 244.838L155.875 243.002C153.842 242.123 151.232 241.255 148.06 240.395L147.536 242.325ZM155.102 244.847C156.922 245.585 158.469 246.713 159.752 248.243L161.284 246.957C159.794 245.181 157.981 243.855 155.854 242.993L155.102 244.847ZM159.764 248.257C161.019 249.697 161.709 251.615 161.758 254.1L163.758 254.06C163.701 251.212 162.898 248.809 161.272 246.943L159.764 248.257ZM161.758 254.08C161.758 256.282 161.151 258.242 159.937 259.99L161.579 261.13C163.032 259.038 163.758 256.678 163.758 254.08H161.758ZM159.937 259.99C158.721 261.741 156.978 263.153 154.663 264.21L155.493 266.03C158.085 264.847 160.129 263.219 161.579 261.13L159.937 259.99ZM154.672 264.206C152.423 265.206 149.792 265.72 146.758 265.72V267.72C150.017 267.72 152.934 267.167 155.484 266.034L154.672 264.206Z" fill="#DDB892" mask="url(#path-4-outside-2_69_584)"/>
</g>
<defs>
<filter id="filter0_d_69_584" x="160.31" y="275.49" width="144.473" height="74.71" filterUnits="userSpaceOnUse" color-interpolation-filters="sRGB">
<feFlood flood-opacity="0" result="BackgroundImageFix"/>
<feColorMatrix in="SourceAlpha" type="matrix" values="0 0 0 0 0 0 0 0 0 0 0 0 0 0 0 0 0 0 127 0" result="hardAlpha"/>
<feOffset dy="4"/>
<feGaussianBlur stdDeviation="2"/>
<feComposite in2="hardAlpha" operator="out"/>
<feColorMatrix type="matrix" values="0 0 0 0 0 0 0 0 0 0 0 0 0 0 0 0 0 0 0.25 0"/>
<feBlend mode="normal" in2="BackgroundImageFix" result="effect1_dropShadow_69_584"/>
<feBlend mode="normal" in="SourceGraphic" in2="effect1_dropShadow_69_584" result="shape"/>
</filter>
<filter id="filter1_d_69_584" x="2.16" y="210.24" width="164.598" height="64.48" filterUnits="userSpaceOnUse" color-interpolation-filters="sRGB">
<feFlood flood-opacity="0" result="BackgroundImageFix"/>
<feColorMatrix in="SourceAlpha" type="matrix" values="0 0 0 0 0 0 0 0 0 0 0 0 0 0 0 0 0 0 127 0" result="hardAlpha"/>
<feOffset dy="4"/>
<feGaussianBlur stdDeviation="2"/>
<feComposite in2="hardAlpha" operator="out"/>
<feColorMatrix type="matrix" values="0 0 0 0 0 0 0 0 0 0 0 0 0 0 0 0 0 0 0.25 0"/>
<feBlend mode="normal" in2="BackgroundImageFix" result="effect1_dropShadow_69_584"/>
<feBlend mode="normal" in="SourceGraphic" in2="effect1_dropShadow_69_584" result="shape"/>
</filter>
</defs>
</svg>
