<svg width="30" height="30" viewBox="0 0 30 30" fill="none" xmlns="http://www.w3.org/2000/svg">
<rect width="30" height="30" rx="9" fill="#7F5539"/>
<g clip-path="url(#clip0_86_5)">
<path d="M21.8287 13.4743L22.2922 13.0108L20.9018 11.6204L18.3547 9.07333L16.9643 7.6829L16.5008 8.14638L15.5738 9.07333L7.40352 17.2436C6.97696 17.6702 6.66524 18.1993 6.49297 18.7776L5.04102 23.7159C4.93848 24.0604 5.03282 24.4337 5.29122 24.688C5.54961 24.9423 5.91875 25.0366 6.26329 24.9382L11.1975 23.4862C11.7758 23.314 12.3049 23.0022 12.7314 22.5757L20.9018 14.4054L21.8287 13.4743ZM11.5625 20.3813L11.1893 21.3124C11.0252 21.4395 10.8406 21.5339 10.6438 21.5954L7.43633 22.5388L8.37969 19.3354C8.43711 19.1345 8.53555 18.9499 8.6627 18.7899L9.59375 18.4167V19.7292C9.59375 20.0901 9.88907 20.3854 10.25 20.3854H11.5625V20.3813ZM19.8764 4.76669L19.2857 5.36142L18.3588 6.28837L17.8912 6.75185L19.2816 8.14228L21.8287 10.6893L23.2191 12.0798L23.6826 11.6163L24.6096 10.6893L25.2043 10.0946C26.2297 9.06923 26.2297 7.4081 25.2043 6.38271L23.5924 4.76669C22.567 3.7413 20.9059 3.7413 19.8805 4.76669H19.8764ZM17.9322 11.6573L12.026 17.5636C11.7717 17.8179 11.3533 17.8179 11.099 17.5636C10.8447 17.3093 10.8447 16.8909 11.099 16.6366L17.0053 10.7304C17.2596 10.4761 17.6779 10.4761 17.9322 10.7304C18.1865 10.9847 18.1865 11.403 17.9322 11.6573Z" fill="white"/>
</g>
<defs>
<clipPath id="clip0_86_5">
<rect width="21" height="21" fill="white" transform="translate(5 4)"/>
</clipPath>
</defs>
</svg>
