<svg width="30" height="30" viewBox="0 0 30 30" fill="none" xmlns="http://www.w3.org/2000/svg">
<rect width="30" height="30" rx="9" fill="#7F5539"/>
<g clip-path="url(#clip0_86_4)">
<path d="M21.4375 13.7188C21.4375 15.4221 20.8846 16.9955 19.9531 18.2721L24.6512 22.9738C25.115 23.4377 25.115 24.191 24.6512 24.6549C24.1873 25.1188 23.434 25.1188 22.9701 24.6549L18.2721 19.9531C16.9955 20.8883 15.4221 21.4375 13.7187 21.4375C9.45488 21.4375 6 17.9826 6 13.7188C6 9.45488 9.45488 6 13.7187 6C17.9826 6 21.4375 9.45488 21.4375 13.7188ZM13.7187 19.0625C14.4205 19.0625 15.1154 18.9243 15.7637 18.6557C16.412 18.3872 17.0011 17.9936 17.4974 17.4974C17.9936 17.0011 18.3872 16.412 18.6557 15.7637C18.9243 15.1154 19.0625 14.4205 19.0625 13.7188C19.0625 13.017 18.9243 12.3221 18.6557 11.6738C18.3872 11.0255 17.9936 10.4364 17.4974 9.94015C17.0011 9.44394 16.412 9.05032 15.7637 8.78177C15.1154 8.51322 14.4205 8.375 13.7187 8.375C13.017 8.375 12.3221 8.51322 11.6738 8.78177C11.0255 9.05032 10.4364 9.44394 9.94015 9.94015C9.44393 10.4364 9.05032 11.0255 8.78177 11.6738C8.51322 12.3221 8.375 13.017 8.375 13.7188C8.375 14.4205 8.51322 15.1154 8.78177 15.7637C9.05032 16.412 9.44393 17.0011 9.94015 17.4974C10.4364 17.9936 11.0255 18.3872 11.6738 18.6557C12.3221 18.9243 13.017 19.0625 13.7187 19.0625Z" fill="white"/>
</g>
<defs>
<clipPath id="clip0_86_4">
<rect width="19" height="19" fill="white" transform="translate(6 6)"/>
</clipPath>
</defs>
</svg>
